PathFileType	4	(X/Y/Z)	C:\Users\WrightLab\Desktop\Jo\P2_Trial34.trc
DataRate	CameraRate	NumFrames	NumMarkers	Units	OrigDataRate	OrigDataStartFrame	OrigNumFrames
100.00	100.00	       11	19	mm	100.00	166	       663
Frame#	Time	Headset_Front			Headset_Back			Headset_Left			Headset_Right			Left_Shoulder			Right_Shoulder			Sternum			C7			Left Elbow			Right Elbow			Left Wrist			Right Wrist			Left ASIS			Right ASIS			S2			Left Knee			Right Knee			Left Ankle			Right Ankle			
		X1	Y1	Z1	X2	Y2	Z2	X3	Y3	Z3	X4	Y4	Z4	X5	Y5	Z5	X6	Y6	Z6	X7	Y7	Z7	X8	Y8	Z8	X9	Y9	Z9	X10	Y10	Z10	X11	Y11	Z11	X12	Y12	Z12	X13	Y13	Z13	X14	Y14	Z14	X15	Y15	Z15	X16	Y16	Z16	X17	Y17	Z17	X18	Y18	Z18	X19	Y19	Z19	

166	1.650																-712.11212	1389.01538	-1287.20093	-554.26068	1284.11060	-1102.08142				-288.61130	1037.86584	-1230.66882	-803.35175	1069.43372	-1293.17041				-807.61127	849.37335	-1170.90234	-521.01331	967.70923	-1138.45044	-638.24982	938.66193	-1199.79919				-482.02988	434.72205	-1067.82764										
167	1.660																-715.53119	1386.86377	-1277.38403	-579.74030	1264.87427	-1177.93872				-293.43198	1035.60291	-1225.18298	-807.68329	1066.67981	-1281.81506				-808.76300	848.23334	-1162.67786	-524.89258	966.50385	-1126.72571	-642.36859	935.98767	-1185.02075				-484.78674	431.67410	-1063.24341										
168	1.670																-718.86566	1385.99304	-1270.35571	-583.91425	1263.50122	-1169.26782				-297.90952	1033.24768	-1218.55103	-812.37335	1064.59314	-1270.72473				-810.92102	846.71320	-1151.99927	-530.27679	964.33948	-1120.64697	-647.19513	934.97656	-1179.88696				-489.26590	426.81577	-1056.88184										
169	1.680																-721.97516	1383.61426	-1259.87561	-587.85278	1261.85693	-1160.01465				-300.20996	1031.66931	-1214.84827	-817.11768	1062.31421	-1260.26514				-812.82819	844.74103	-1144.36279	-535.26086	961.98108	-1107.41663	-652.14130	932.77502	-1174.42944				-493.43170	423.65219	-1051.93945										
170	1.690				-415.34641	1380.78357	-1168.92651										-725.52484	1382.55566	-1251.32849	-591.89050	1259.48987	-1149.88513				-305.49725	1030.47937	-1205.71545	-821.35925	1062.00476	-1253.95605				-814.93243	844.38892	-1133.65796	-538.70264	961.16541	-1098.36511	-655.53357	931.23212	-1162.27686				-496.60480	418.94882	-1045.24048										
171	1.700				-418.91843	1378.61340	-1156.58887										-728.54596	1381.94153	-1244.10132	-595.04712	1257.87976	-1140.74854				-309.60663	1029.15503	-1196.94312	-825.82721	1060.89294	-1244.92004				-816.36078	843.34888	-1124.77490	-545.11279	958.45630	-1090.79333	-660.57587	931.59692	-1152.38831				-500.04681	416.01492	-1040.38562										
172	1.710				-422.35748	1376.94922	-1145.16125										-732.61066	1380.67603	-1232.84412	-601.20239	1258.42847	-1131.63940				-313.54141	1028.20654	-1187.16382	-829.23956	1059.77637	-1237.56982				-819.73895	841.69379	-1120.76404	-550.30328	957.64069	-1082.74060	-664.99841	929.55200	-1142.75049				-503.23877	413.20346	-1035.49670										
173	1.720				-426.11154	1377.06860	-1137.75562										-736.14233	1380.86304	-1224.80676	-604.37634	1256.86194	-1122.16028				-317.50497	1025.64490	-1177.71277	-832.80908	1059.59668	-1231.77820				-821.66949	841.05664	-1112.58618	-555.74628	956.29913	-1071.40308	-670.14655	927.39252	-1137.97998				-506.69650	411.24692	-1028.90076										
174	1.730				-429.84094	1375.61987	-1124.66321										-739.16992	1380.81714	-1216.00781	-608.54956	1256.91943	-1112.97241				-320.96936	1024.97217	-1168.06567	-837.15686	1058.81482	-1222.01270				-823.70044	839.91705	-1106.06580	-560.03003	955.40399	-1060.50696	-674.36169	928.05322	-1127.32007				-510.98425	409.98169	-1018.53131										
175	1.740				-433.07355	1376.06360	-1116.85278										-742.72809	1381.13770	-1208.68872	-612.33478	1257.47058	-1103.62329				-325.94788	1023.15686	-1156.28284	-840.75293	1058.88501	-1213.42957				-826.03448	841.62640	-1095.42224	-564.94330	955.64276	-1050.75281	-679.01935	928.51172	-1118.65039				-516.33783	411.42972	-1007.51508										
176	1.750				-436.52573	1376.40771	-1107.26001										-746.46613	1382.72693	-1199.46570	-616.93451	1257.52844	-1092.46753				-330.95807	1025.93860	-1133.15405	-844.19031	1059.60938	-1205.43494				-827.13947	841.69287	-1087.90906	-569.33362	955.57489	-1040.17908	-682.22144	929.77771	-1103.04529				-521.50812	412.89108	-996.99091										
